<svg width="61" height="41" viewBox="0 0 61 41" fill="none" xmlns="http://www.w3.org/2000/svg">
<path d="M56.2405 0.00374041C55.4647 0.030613 54.734 0.198566 54.0845 0.386674H54.0755C53.4169 0.5815 50.2866 1.56235 45.5324 3.04706C40.7783 4.53849 34.6078 6.47331 28.4825 8.3947C16.2498 12.2308 4.22467 16.0064 4.22467 16.0064L4.36901 15.966C4.36901 15.966 3.53907 16.1676 2.67304 16.611C2.231 16.826 1.74386 17.1216 1.31987 17.5851C0.895877 18.0487 0.553073 18.7608 0.67937 19.4931C0.886856 20.7359 1.96939 21.4816 2.74521 21.8915C3.53005 22.308 4.2788 22.5028 4.2788 22.5028H4.29684L15.5733 25.3311C16.0784 26.5404 19.0103 33.7154 19.714 35.368C20.1289 36.3556 20.5349 36.9737 21.0401 37.444C21.2836 37.6858 21.5723 37.8874 21.9151 38.0486C22.0504 38.1091 22.1948 38.1561 22.3391 38.1964C22.3842 38.2165 22.4293 38.2233 22.4834 38.23L22.3662 38.2098C22.4023 38.2165 22.4293 38.2367 22.4564 38.2434C22.5466 38.2636 22.6097 38.2703 22.727 38.2837C24.5132 38.6868 25.9476 37.8605 25.9476 37.8605L26.0288 37.8135L32.6863 33.2989L43.8455 39.6744L44.0981 39.755C46.4255 40.5141 48.78 40.0909 50.025 39.3452C51.2789 38.5928 51.766 37.6321 51.766 37.6321L51.8472 37.4775L60.4714 4.5788C60.715 3.7659 60.7782 3.00675 60.5075 2.26775C60.2369 1.52876 59.5423 0.83679 58.7033 0.467292C57.8553 0.0910759 57.0163 -0.0231322 56.2405 0.00374041ZM56.006 3.53077C55.997 3.63826 56.024 3.62482 55.9609 3.83308V3.85324L47.4179 36.4094C47.3818 36.4564 47.3186 36.5572 47.1472 36.6579C46.9668 36.7654 46.8225 36.8326 46.0737 36.6109L32.4247 28.8179L24.1794 34.4141L25.9115 26.1776C25.9115 26.1776 47.2916 11.3372 48.2117 10.699C49.1319 10.0608 48.8252 9.92644 48.8252 9.92644C48.8883 9.14713 47.4359 9.69802 47.4359 9.69802L19.317 22.6708L19.308 22.6372L5.83044 19.2579V19.2512C5.82141 19.2512 5.80337 19.2445 5.79435 19.2445C5.80337 19.2445 5.86652 19.2243 5.86652 19.2243L5.93869 19.1975L6.01086 19.1773C6.01086 19.1773 18.045 15.4017 30.2777 11.5657C36.4031 9.64428 42.5735 7.70945 47.3186 6.21802C52.0637 4.73331 55.573 3.64497 55.7714 3.58451C55.9609 3.53077 55.8707 3.53077 56.006 3.53077Z" fill="#B1B1B1"/>
</svg>
