<svg width="61" height="41" viewBox="0 0 61 41" fill="none" xmlns="http://www.w3.org/2000/svg">
<path fill-rule="evenodd" clip-rule="evenodd" d="M60.2075 32.7035C58.8086 29.7477 56.9653 27.0476 54.7485 24.707C53.9942 23.7869 53.1097 22.8789 52.4191 22.1704L52.3227 22.0714C51.9664 21.7055 51.6722 21.402 51.4315 21.1405C54.4625 16.7187 57.0569 11.9841 59.1736 7.0094L59.259 6.80869L59.3189 6.59804C59.5969 5.6189 59.9174 3.75697 58.7839 2.07431C57.6124 0.335116 55.7364 0.0214527 54.4803 0.0214527H48.7008C47.4961 -0.0364771 46.303 0.305221 45.2922 0.99992C44.2737 1.69985 43.4947 2.72082 43.0659 3.91427C41.8214 7.02443 40.264 9.98274 38.4222 12.7397V5.6346C38.4222 4.71617 38.3399 3.1798 37.4025 1.88306C36.2801 0.330421 34.6569 0.0214527 33.5301 0.0214527H24.3598C23.1783 -0.00720193 22.0292 0.435974 21.1461 1.26329C20.2418 2.11052 19.6876 3.29399 19.6011 4.56273L19.5929 4.6829V4.8034C19.5929 6.11331 20.0877 7.07956 20.483 7.68724C20.6599 7.9593 20.8492 8.20696 20.9688 8.36338L20.9964 8.39948C21.1239 8.56628 21.209 8.67761 21.2944 8.79948C21.5191 9.12008 21.8422 9.61439 21.9337 10.8935V14.8678C20.3527 12.1414 18.6849 8.51323 17.4301 4.6383L17.4108 4.57883L17.3895 4.52015C17.0766 3.66046 16.5747 2.40958 15.5697 1.45235C14.3955 0.334091 13.0067 0.0214527 11.7436 0.0214527H5.87969C4.60192 0.0214527 3.0615 0.335063 1.91211 1.60704C0.781823 2.85788 0.653809 4.35669 0.653809 5.1536V5.51281L0.725924 5.86395C2.35013 13.7726 5.6968 21.1788 10.503 27.5033C12.682 31.1081 15.6346 34.1298 19.1259 36.3258C22.673 38.5572 26.6746 39.8723 30.801 40.1632L30.9085 40.1707H31.0166C32.8833 40.1707 34.8295 40.0018 36.2929 38.9787C38.2672 37.5986 38.4222 35.4789 38.4222 34.4225V31.3523C38.9289 31.7818 39.5575 32.3603 40.327 33.1377C41.2573 34.1144 41.998 34.9608 42.6333 35.6996L42.9723 36.0951L42.9744 36.0973C43.4677 36.6736 43.9532 37.2411 44.3954 37.7073C44.9512 38.2934 45.6363 38.9393 46.4977 39.4163C47.4303 39.933 48.4092 40.1667 49.449 40.1667H55.3169C56.553 40.1667 58.3261 39.8599 59.5728 38.3438C60.9313 36.6914 60.8276 34.6662 60.4004 33.2108L60.3235 32.9491L60.2075 32.7035ZM45.4977 32.9885C44.8372 32.2203 44.0407 31.3097 43.034 30.2539L43.0258 30.2452C39.538 26.7174 37.9081 26.1027 36.7559 26.1027C36.143 26.1027 35.4648 26.175 35.0247 26.75C34.8169 27.0215 34.7078 27.349 34.6466 27.6903C34.5854 28.0311 34.5643 28.4312 34.5643 28.887V34.4225C34.5643 35.11 34.4565 35.3987 34.1536 35.6108C33.7498 35.8931 32.8869 36.1219 31.0382 36.1235C27.529 35.8725 24.1266 34.7525 21.1099 32.8549C18.087 30.9535 15.538 28.3258 13.6727 25.1883L13.6524 25.1543L13.6284 25.1227C9.14994 19.275 6.02928 12.4152 4.51252 5.08528C4.52075 4.73193 4.59371 4.52231 4.71195 4.39145C4.83378 4.25662 5.12899 4.06872 5.87969 4.06872H11.7436C12.3959 4.06872 12.7335 4.21758 12.9765 4.44897C13.252 4.71131 13.4909 5.15681 13.7811 5.95226C15.2204 10.3934 17.1668 14.5467 19.0099 17.6005C19.9311 19.1269 20.8377 20.3974 21.6546 21.2951C22.0624 21.7435 22.4623 22.1148 22.8439 22.379C23.2133 22.6345 23.632 22.836 24.0627 22.836C24.29 22.836 24.5557 22.8115 24.8117 22.6925C25.087 22.5649 25.3007 22.3517 25.4516 22.066C25.7185 21.5609 25.7916 20.8127 25.7916 19.8324V10.7566L25.7903 10.7353C25.657 8.52724 25.0215 7.28518 24.4028 6.40221C24.2672 6.20869 24.1334 6.03391 24.0164 5.88095L23.9844 5.83904C23.8559 5.67095 23.7536 5.53512 23.6696 5.40596C23.5157 5.1693 23.456 5.00431 23.4512 4.8275C23.4712 4.61763 23.5655 4.42291 23.7159 4.28201C23.872 4.13577 24.0763 4.05962 24.2854 4.06872H33.5301C34.0602 4.06872 34.2387 4.20438 34.3285 4.32866C34.4553 4.50409 34.5643 4.86897 34.5643 5.6346V17.8536C34.5643 19.3049 35.2022 20.2876 36.1283 20.2876C37.1941 20.2876 37.9624 19.6093 39.306 18.1998L39.3284 18.1763L39.3484 18.1504C42.3597 14.2982 44.8208 10.0064 46.6525 5.40995L46.6641 5.3755C46.8019 4.96934 47.0625 4.62163 47.4064 4.38538C47.75 4.14915 48.1579 4.03736 48.5679 4.06712L48.5902 4.06872H54.4803C55.2835 4.06872 55.5479 4.2832 55.6333 4.41004C55.7241 4.54497 55.7873 4.83419 55.633 5.40137C53.5212 10.3563 50.9096 15.0596 47.8441 19.4323L47.8248 19.4631C47.5272 19.9406 47.2009 20.4689 47.1535 21.0755C47.1029 21.7268 47.3716 22.3191 47.8415 22.9537C48.1841 23.485 48.8906 24.2105 49.6074 24.9466L49.6751 25.0159C50.4266 25.7876 51.2406 26.6235 51.8942 27.4329L51.9117 27.4542L51.9307 27.4742C53.8789 29.5129 55.499 31.8698 56.7276 34.4525C56.9239 35.1556 56.8038 35.515 56.6513 35.7004C56.473 35.9173 56.0733 36.1194 55.3169 36.1194H49.449C48.9907 36.1194 48.637 36.0247 48.2991 35.8375C47.947 35.6424 47.5849 35.3321 47.1306 34.8532C46.7649 34.4673 46.3652 34.0006 45.8776 33.4315C45.7567 33.2904 45.6304 33.1425 45.4977 32.9885Z" fill="#B1B1B1"/>
</svg>
